<svg width="77" height="51" viewBox="0 0 77 51" fill="none" xmlns="http://www.w3.org/2000/svg">
<path fill-rule="evenodd" clip-rule="evenodd" d="M22.3041 0.48469C23.1531 1.20826 23.2514 2.47917 22.5237 3.32334L4.53657 24.1899C3.8867 24.9438 3.8867 26.0562 4.53657 26.8101L22.5237 47.6767C23.2514 48.5208 23.1531 49.7917 22.3041 50.5153C21.4551 51.2389 20.177 51.1411 19.4493 50.297L1.46222 29.4304C-0.487402 27.1687 -0.487408 23.8313 1.46221 21.5696L19.4493 0.703048C20.177 -0.14112 21.4551 -0.238882 22.3041 0.48469ZM49.2985 0.48469C50.1475 1.20826 50.2458 2.47917 49.5181 3.32334L31.531 24.1899C30.8811 24.9438 30.8811 26.0562 31.531 26.8101L49.5181 47.6767C50.2458 48.5208 50.1475 49.7917 49.2985 50.5153C48.4496 51.2389 47.1714 51.1411 46.4438 50.297L28.4567 29.4304C26.507 27.1687 26.507 23.8313 28.4566 21.5696L46.4438 0.703048C47.1714 -0.14112 48.4496 -0.238882 49.2985 0.48469ZM76.5126 3.32334C77.2402 2.47917 77.1419 1.20826 76.293 0.48469C75.444 -0.238882 74.1659 -0.14112 73.4382 0.703048L55.4511 21.5696C53.5015 23.8313 53.5015 27.1687 55.4511 29.4304L73.4382 50.297C74.1659 51.1411 75.444 51.2389 76.293 50.5153C77.1419 49.7917 77.2402 48.5208 76.5126 47.6767L58.5254 26.8101C57.8756 26.0562 57.8756 24.9438 58.5254 24.1899L76.5126 3.32334Z" fill="#67AE3E"/>
</svg>
