<svg width="102" height="102" viewBox="0 0 102 102" fill="none" xmlns="http://www.w3.org/2000/svg">
<path d="M53.0178 4.86072C51.9049 5.97367 50.1048 5.97367 48.9918 4.86072C47.8789 3.74776 47.8789 1.94767 48.9918 0.834717C50.1048 -0.278239 51.9049 -0.278239 53.0178 0.834717C54.1211 1.93799 54.1211 3.74776 53.0178 4.86072ZM65.0571 12.8643C63.9442 11.7514 62.1441 11.7514 61.0311 12.8643C59.9182 13.9773 59.9182 15.7774 61.0311 16.8903C62.1441 18.0033 63.9442 18.0033 65.0571 16.8903C66.1604 15.787 66.1604 13.9773 65.0571 12.8643ZM77.0867 24.9036C75.9738 23.7906 74.1737 23.7906 73.0607 24.9036C71.9478 26.0165 71.9478 27.8166 73.0607 28.9296C74.1737 30.0425 75.9738 30.0425 77.0867 28.9296C78.1997 27.8166 78.1997 26.0165 77.0867 24.9036ZM89.126 36.9428C88.0131 35.8299 86.213 35.8299 85.1 36.9428C83.9871 38.0558 83.9871 39.8559 85.1 40.9689C86.213 42.0818 88.0131 42.0818 89.126 40.9689C90.239 39.8559 90.239 38.0558 89.126 36.9428ZM101.165 48.9821C100.052 47.8692 98.2522 47.8692 97.1393 48.9821C96.0263 50.0951 96.0263 51.8952 97.1393 53.0082C98.2522 54.1211 100.052 54.1211 101.165 53.0082C102.278 51.8952 102.278 50.0951 101.165 48.9821ZM40.9786 12.8643C39.8656 11.7514 38.0655 11.7514 36.9526 12.8643C35.8396 13.9773 35.8396 15.7774 36.9526 16.8903C38.0655 18.0033 39.8656 18.0033 40.9786 16.8903C42.0915 15.787 42.0915 13.9773 40.9786 12.8643ZM53.0178 24.9036C51.9049 23.7906 50.1048 23.7906 48.9918 24.9036C47.8789 26.0165 47.8789 27.8166 48.9918 28.9296C50.1048 30.0425 51.9049 30.0425 53.0178 28.9296C54.1211 27.8166 54.1211 26.0165 53.0178 24.9036ZM65.0571 36.9428C63.9442 35.8299 62.1441 35.8299 61.0311 36.9428C59.9182 38.0558 59.9182 39.8559 61.0311 40.9689C62.1441 42.0818 63.9442 42.0818 65.0571 40.9689C66.1604 39.8559 66.1604 38.0558 65.0571 36.9428ZM77.0867 48.9821C75.9738 47.8692 74.1737 47.8692 73.0607 48.9821C71.9478 50.0951 71.9478 51.8952 73.0607 53.0082C74.1737 54.1211 75.9738 54.1211 77.0867 53.0082C78.1997 51.8952 78.1997 50.0951 77.0867 48.9821ZM89.126 61.0214C88.0131 59.9085 86.213 59.9085 85.1 61.0214C83.9871 62.1344 83.9871 63.9345 85.1 65.0474C86.213 66.1604 88.0131 66.1604 89.126 65.0474C90.239 63.9345 90.239 62.1344 89.126 61.0214ZM28.9393 24.9036C27.8263 23.7906 26.0262 23.7906 24.9133 24.9036C23.8003 26.0165 23.8003 27.8166 24.9133 28.9296C26.0262 30.0425 27.8263 30.0425 28.9393 28.9296C30.0522 27.8166 30.0522 26.0165 28.9393 24.9036ZM40.9786 36.9428C39.8656 35.8299 38.0655 35.8299 36.9526 36.9428C35.8396 38.0558 35.8396 39.8559 36.9526 40.9689C38.0655 42.0818 39.8656 42.0818 40.9786 40.9689C42.0915 39.8559 42.0915 38.0558 40.9786 36.9428ZM53.0178 48.9821C51.9049 47.8692 50.1048 47.8692 48.9918 48.9821C47.8789 50.0951 47.8789 51.8952 48.9918 53.0082C50.1048 54.1211 51.9049 54.1211 53.0178 53.0082C54.1211 51.8952 54.1211 50.0951 53.0178 48.9821ZM65.0571 61.0214C63.9442 59.9085 62.1441 59.9085 61.0311 61.0214C59.9182 62.1344 59.9182 63.9345 61.0311 65.0474C62.1441 66.1604 63.9442 66.1604 65.0571 65.0474C66.1604 63.9345 66.1604 62.1344 65.0571 61.0214ZM77.0867 73.0607C75.9738 71.9477 74.1737 71.9477 73.0607 73.0607C71.9478 74.1737 71.9478 75.9738 73.0607 77.0867C74.1737 78.1997 75.9738 78.1997 77.0867 77.0867C78.1997 75.9738 78.1997 74.1737 77.0867 73.0607ZM16.9 36.9428C15.787 35.8299 13.987 35.8299 12.874 36.9428C11.761 38.0558 11.761 39.8559 12.874 40.9689C13.987 42.0818 15.787 42.0818 16.9 40.9689C18.013 39.8559 18.013 38.0558 16.9 36.9428ZM28.9393 48.9821C27.8263 47.8692 26.0262 47.8692 24.9133 48.9821C23.8003 50.0951 23.8003 51.8952 24.9133 53.0082C26.0262 54.1211 27.8263 54.1211 28.9393 53.0082C30.0522 51.8952 30.0522 50.0951 28.9393 48.9821ZM40.9786 61.0214C39.8656 59.9085 38.0655 59.9085 36.9526 61.0214C35.8396 62.1344 35.8396 63.9345 36.9526 65.0474C38.0655 66.1604 39.8656 66.1604 40.9786 65.0474C42.0915 63.9345 42.0915 62.1344 40.9786 61.0214ZM53.0178 73.0607C51.9049 71.9477 50.1048 71.9477 48.9918 73.0607C47.8789 74.1737 47.8789 75.9738 48.9918 77.0867C50.1048 78.1997 51.9049 78.1997 53.0178 77.0867C54.1211 75.9738 54.1211 74.1737 53.0178 73.0607ZM65.0571 85.1C63.9442 83.987 62.1441 83.987 61.0311 85.1C59.9182 86.2129 59.9182 88.0131 61.0311 89.126C62.1441 90.239 63.9442 90.239 65.0571 89.126C66.1604 88.0131 66.1604 86.2129 65.0571 85.1ZM4.86072 48.9821C3.74776 47.8692 1.94767 47.8692 0.834717 48.9821C-0.278239 50.0951 -0.278239 51.8952 0.834717 53.0082C1.94767 54.1211 3.74776 54.1211 4.86072 53.0082C5.97367 51.8952 5.97367 50.0951 4.86072 48.9821ZM16.9 61.0214C15.787 59.9085 13.987 59.9085 12.874 61.0214C11.761 62.1344 11.761 63.9345 12.874 65.0474C13.987 66.1604 15.787 66.1604 16.9 65.0474C18.013 63.9345 18.013 62.1344 16.9 61.0214ZM28.9393 73.0607C27.8263 71.9477 26.0262 71.9477 24.9133 73.0607C23.8003 74.1737 23.8003 75.9738 24.9133 77.0867C26.0262 78.1997 27.8263 78.1997 28.9393 77.0867C30.0522 75.9738 30.0522 74.1737 28.9393 73.0607ZM40.9786 85.1C39.8656 83.987 38.0655 83.987 36.9526 85.1C35.8396 86.2129 35.8396 88.0131 36.9526 89.126C38.0655 90.239 39.8656 90.239 40.9786 89.126C42.0915 88.0131 42.0915 86.2129 40.9786 85.1ZM53.0178 97.1393C51.9049 96.0263 50.1048 96.0263 48.9918 97.1393C47.8789 98.2522 47.8789 100.052 48.9918 101.165C50.1048 102.278 51.9049 102.278 53.0178 101.165C54.1308 100.052 54.1211 98.2522 53.0178 97.1393Z" fill="#67AE3E"/>
</svg>
