<svg width="24" height="24" viewBox="0 0 24 24" fill="none" xmlns="http://www.w3.org/2000/svg">
<path fill-rule="evenodd" clip-rule="evenodd" d="M7.496 3H16.505C18.987 3 21 5.012 21 7.496V16.505C21 18.987 18.988 21 16.504 21H7.496C5.013 21 3 18.988 3 16.504V7.496C3 5.013 5.012 3 7.496 3V3Z" stroke="white" stroke-width="1.5" stroke-linecap="round" stroke-linejoin="round"/>
<path d="M16.9489 6.71289C16.7629 6.71389 16.6119 6.86489 16.6119 7.05089C16.6119 7.23689 16.7639 7.38789 16.9499 7.38789C17.1359 7.38789 17.2869 7.23689 17.2869 7.05089C17.2879 6.86389 17.1359 6.71289 16.9489 6.71289Z" stroke="white" stroke-width="1.5" stroke-linecap="round" stroke-linejoin="round"/>
<path d="M14.5456 9.45432C15.9514 10.8602 15.9514 13.1396 14.5456 14.5455C13.1397 15.9514 10.8603 15.9514 9.45438 14.5455C8.04849 13.1396 8.04849 10.8602 9.45438 9.45432C10.8603 8.04843 13.1397 8.04843 14.5456 9.45432" stroke="white" stroke-width="1.5" stroke-linecap="round" stroke-linejoin="round"/>
</svg>
