<svg width="90" height="67" viewBox="0 0 90 67" fill="none" xmlns="http://www.w3.org/2000/svg">
<path d="M46.8175 38.9628C46.8175 38.9628 76.5701 30.8097 78.0939 0.915039C78.0939 0.915039 75.4474 11.7059 64.621 10.9865C53.7945 10.2671 48.5017 13.7841 45.5343 20.3385C45.5343 20.3385 53.9549 11.8657 58.6063 18.58C63.2576 25.2943 46.8175 38.9628 46.8175 38.9628Z" fill="white"/>
<path d="M46.8174 38.9627C46.8174 38.9627 32.9435 37.4439 22.8388 24.9744C12.7342 12.5051 24.5228 8.66833 34.2266 12.0255C43.9304 15.3827 45.5343 20.3384 45.5343 20.3384C45.5343 20.3384 40.9521 16.1807 35.0176 17.4596C29.0831 18.7385 30.596 26.2908 36.1295 31.1665C41.663 36.0424 46.8174 38.9627 46.8174 38.9627Z" fill="white"/>
<path d="M21.4695 6.81483C22.1899 9.04169 21.3042 11.3191 19.4916 11.9015C17.679 12.4839 15.6257 11.1508 14.9054 8.92398C14.1852 6.69712 15.0707 4.41975 16.8834 3.83733C18.6961 3.25491 20.7494 4.58798 21.4695 6.81483Z" fill="white"/>
<path d="M66.6527 9.11903C68.4655 8.53664 69.3512 6.25925 68.631 4.03231C67.9108 1.80538 65.8574 0.472208 64.0447 1.05459C62.2319 1.63698 61.3462 3.91437 62.0664 6.14131C62.7867 8.36824 64.84 9.70141 66.6527 9.11903Z" fill="white"/>
<path d="M7.48299 54.6847H4.29403V66.7473H1.91398V54.6847H0.156174V52.4521H1.91398V51.3512C1.91398 50.6277 2.02287 49.9764 2.24066 49.3975C2.46881 48.8083 2.77475 48.3122 3.15845 47.9091C3.54217 47.4957 3.98291 47.1753 4.4807 46.9479C4.97849 46.7101 5.50221 46.5913 6.05185 46.5913C6.29037 46.5913 6.49779 46.6067 6.67407 46.6378C6.85038 46.6688 7.00594 46.705 7.14075 46.7463C7.26521 46.8083 7.37928 46.8599 7.48299 46.9014V48.9635C7.42076 48.9428 7.34817 48.9222 7.26521 48.9014C7.20299 48.8807 7.11483 48.8601 7.00075 48.8395C6.89705 48.8188 6.79334 48.8083 6.68964 48.8083C5.9637 48.8083 5.38295 49.0306 4.94738 49.4752C4.51181 49.9196 4.29403 50.5449 4.29403 51.3512V52.4521H7.48299V54.6847Z" fill="white"/>
<path d="M11.6364 59.5996C11.6364 60.3645 11.7505 61.0621 11.9786 61.6927C12.2172 62.3129 12.5386 62.8452 12.9431 63.2896C13.3476 63.7342 13.809 64.0805 14.3276 64.3285C14.8565 64.5663 15.3957 64.685 15.9454 64.685C16.495 64.685 17.0291 64.5663 17.5476 64.3285C18.0661 64.0805 18.5225 63.7342 18.9166 63.2896C19.3106 62.8452 19.627 62.3129 19.8655 61.6927C20.1143 61.0621 20.2388 60.3645 20.2388 59.5996C20.2388 58.8346 20.1143 58.1421 19.8655 57.5219C19.627 56.9018 19.3106 56.3694 18.9166 55.925C18.5225 55.4805 18.0661 55.1395 17.5476 54.9016C17.0291 54.6536 16.495 54.5296 15.9454 54.5296C15.3957 54.5296 14.8565 54.6536 14.3276 54.9016C13.809 55.1395 13.3476 55.4805 12.9431 55.925C12.5386 56.3694 12.2172 56.9018 11.9786 57.5219C11.7505 58.1421 11.6364 58.8346 11.6364 59.5996ZM22.6344 59.5996C22.6344 60.6746 22.4581 61.6616 22.1054 62.561C21.7529 63.4498 21.2758 64.22 20.6743 64.8711C20.0729 65.5121 19.3624 66.0133 18.5432 66.3751C17.7239 66.7266 16.858 66.9022 15.9454 66.9022C15.0328 66.9022 14.1668 66.7266 13.3476 66.3751C12.5283 66.0133 11.8127 65.5121 11.2008 64.8711C10.5994 64.22 10.1223 63.4498 9.7697 62.561C9.42747 61.6721 9.25636 60.6849 9.25636 59.5996C9.25636 58.5245 9.42747 57.5426 9.7697 56.6536C10.1223 55.7648 10.5994 54.9999 11.2008 54.359C11.8127 53.7078 12.5283 53.2014 13.3476 52.8395C14.1668 52.4777 15.0328 52.2969 15.9454 52.2969C16.858 52.2969 17.7239 52.4777 18.5432 52.8395C19.3624 53.2014 20.0729 53.7078 20.6743 54.359C21.2758 54.9999 21.7529 55.7648 22.1054 56.6536C22.4581 57.5426 22.6344 58.5245 22.6344 59.5996Z" fill="white"/>
<path d="M32.3568 52.2969C33.1243 52.2969 33.8398 52.452 34.5034 52.7621C35.1776 53.0721 35.7687 53.4959 36.2768 54.0335C36.785 54.5709 37.1843 55.2222 37.4747 55.987C37.7755 56.7416 37.9258 57.5788 37.9258 58.4988V66.7473H35.5457V58.4988C35.5457 57.9096 35.4473 57.372 35.2502 56.8862C35.0635 56.3901 34.8094 55.9663 34.488 55.615C34.1665 55.2634 33.7932 54.9947 33.368 54.8086C32.9531 54.6227 32.5072 54.5296 32.0301 54.5296C30.8998 54.5296 29.9819 54.8913 29.2768 55.615C28.5716 56.3281 28.2189 57.2893 28.2189 58.4988V66.7473H25.8233V52.452H27.5811L28.2189 54.0489C28.5196 53.7285 28.8671 53.4443 29.2611 53.1961C29.6242 52.9585 30.0597 52.7517 30.5678 52.576C31.0761 52.3899 31.6723 52.2969 32.3568 52.2969Z" fill="white"/>
<path d="M52.2683 59.5995C52.2683 58.8345 52.1439 58.142 51.8949 57.5218C51.6565 56.9017 51.335 56.3693 50.9304 55.9249C50.526 55.4804 50.0491 55.1394 49.4994 54.9015C48.9601 54.6535 48.3948 54.5295 47.8038 54.5295C47.2127 54.5295 46.6423 54.6535 46.0926 54.9015C45.5534 55.1394 45.0815 55.4804 44.6771 55.9249C44.2727 56.3693 43.946 56.9017 43.697 57.5218C43.4585 58.142 43.3392 58.8345 43.3392 59.5995C43.3392 60.3644 43.4585 61.062 43.697 61.6926C43.946 62.3128 44.2727 62.8451 44.6771 63.2895C45.0815 63.7341 45.5534 64.0804 46.0926 64.3284C46.6423 64.5662 47.2127 64.6849 47.8038 64.6849C48.3948 64.6849 48.9601 64.5662 49.4994 64.3284C50.0491 64.0804 50.526 63.7341 50.9304 63.2895C51.335 62.8451 51.6565 62.3128 51.8949 61.6926C52.1439 61.062 52.2683 60.3644 52.2683 59.5995ZM51.9416 65.1657C51.6202 65.5067 51.2624 65.8014 50.8683 66.0494C50.5053 66.2872 50.0542 66.4887 49.515 66.6541C48.986 66.8194 48.3638 66.9021 47.6482 66.9021C46.7356 66.9021 45.8697 66.7265 45.0503 66.375C44.2311 66.0132 43.5155 65.512 42.9037 64.871C42.3022 64.2199 41.8251 63.4497 41.4725 62.5609C41.1303 61.672 40.9592 60.6848 40.9592 59.5995C40.9592 58.5244 41.1303 57.5425 41.4725 56.6535C41.8251 55.7647 42.3022 54.9998 42.9037 54.3589C43.5155 53.7077 44.2311 53.2013 45.0503 52.8394C45.8697 52.4776 46.7356 52.2968 47.6482 52.2968C48.3741 52.2968 49.0016 52.4001 49.5304 52.6068C50.0594 52.8032 50.5053 53.0203 50.8683 53.2581C51.2727 53.5372 51.6305 53.8524 51.9416 54.2039V46.7461H54.3372V66.7472H52.5794L51.9416 65.1657Z" fill="white"/>
<path d="M64.9931 59.5997H56.235V57.5376H64.9931V59.5997Z" fill="white"/>
<path d="M70.5621 66.7473H68.1665V52.452H70.5621V66.7473ZM67.8553 48.4208C67.8553 47.9764 67.9953 47.6146 68.2753 47.3354C68.5657 47.046 68.9235 46.9014 69.3486 46.9014C69.7946 46.9014 70.1577 47.046 70.4375 47.3354C70.7279 47.6146 70.8732 47.9764 70.8732 48.4208C70.8732 48.8445 70.7279 49.2011 70.4375 49.4906C70.1577 49.78 69.7946 49.9248 69.3486 49.9248C68.9235 49.9248 68.5657 49.78 68.2753 49.4906C67.9953 49.2011 67.8553 48.8445 67.8553 48.4208Z" fill="white"/>
<path d="M84.0957 62.623C84.0957 63.2122 83.9764 63.7651 83.7379 64.2819C83.5096 64.7989 83.1829 65.2536 82.7578 65.6464C82.3326 66.0392 81.8192 66.3492 81.2177 66.5766C80.6163 66.7938 79.9318 66.9022 79.1645 66.9022C77.5674 66.9022 76.3125 66.4785 75.3999 65.6308C74.4873 64.7833 73.9895 63.7289 73.9066 62.468H76.3021C76.3851 63.0985 76.6599 63.6256 77.1266 64.0495C77.5932 64.4732 78.2726 64.685 79.1645 64.685C79.9734 64.685 80.6006 64.4783 81.0467 64.0649C81.4925 63.6515 81.7155 63.1709 81.7155 62.623C81.7155 62.0959 81.5288 61.6978 81.1556 61.4292C80.7822 61.1604 80.3208 60.9484 79.7711 60.7935C79.2215 60.6384 78.62 60.4937 77.9666 60.3593C77.3237 60.2146 76.7222 60.0079 76.1621 59.7391C75.6124 59.46 75.1509 59.0672 74.7777 58.5607C74.4043 58.0439 74.2177 57.3308 74.2177 56.4212C74.2177 55.8733 74.3317 55.3512 74.5598 54.8551C74.7984 54.359 75.125 53.9196 75.5399 53.5373C75.9547 53.1549 76.4525 52.8551 77.0333 52.6381C77.6244 52.4106 78.2829 52.2969 79.0088 52.2969C80.5333 52.2969 81.7155 52.6949 82.5556 53.4908C83.3956 54.2867 83.8571 55.3203 83.94 56.5917H81.5445C81.4615 55.9612 81.2177 55.4598 80.8133 55.0877C80.4089 54.7155 79.8074 54.5296 79.0088 54.5296C78.2829 54.5296 77.7022 54.726 77.2665 55.1188C76.831 55.5011 76.6132 55.9354 76.6132 56.4212C76.6132 56.9483 76.7999 57.3462 77.1733 57.615C77.5465 57.8838 78.008 58.1008 78.5577 58.2662C79.1073 58.4212 79.7037 58.566 80.3466 58.7003C81 58.8346 81.6015 59.0415 82.1512 59.3204C82.7111 59.5892 83.1726 59.9873 83.5356 60.5144C83.909 61.0312 84.0957 61.734 84.0957 62.623Z" fill="white"/>
<path d="M89.6647 66.7473H87.2689V52.452H89.6647V66.7473ZM86.9578 48.4208C86.9578 47.9764 87.0978 47.6146 87.3779 47.3354C87.6683 47.046 88.026 46.9014 88.4512 46.9014C88.8972 46.9014 89.2601 47.046 89.5401 47.3354C89.8305 47.6146 89.9758 47.9764 89.9758 48.4208C89.9758 48.8445 89.8305 49.2011 89.5401 49.4906C89.2601 49.78 88.8972 49.9248 88.4512 49.9248C88.026 49.9248 87.6683 49.78 87.3779 49.4906C87.0978 49.2011 86.9578 48.8445 86.9578 48.4208Z" fill="white"/>
</svg>
