<svg width="90" height="67" viewBox="0 0 90 67" fill="none" xmlns="http://www.w3.org/2000/svg">
<path d="M46.8175 38.9629C46.8175 38.9629 76.5701 30.8098 78.0939 0.915134C78.0939 0.915134 75.4474 11.706 64.621 10.9866C53.7945 10.2672 48.5017 13.7842 45.5343 20.3386C45.5343 20.3386 53.9549 11.8658 58.6063 18.5801C63.2576 25.2944 46.8175 38.9629 46.8175 38.9629Z" fill="url(#paint0_linear_22:314)"/>
<path d="M46.8174 38.9629C46.8174 38.9629 32.9435 37.4441 22.8388 24.9747C12.7342 12.5053 24.5228 8.66857 34.2266 12.0258C43.9304 15.3829 45.5343 20.3386 45.5343 20.3386C45.5343 20.3386 40.9521 16.181 35.0176 17.4599C29.0831 18.7387 30.596 26.291 36.1295 31.1668C41.663 36.0427 46.8174 38.9629 46.8174 38.9629Z" fill="url(#paint1_linear_22:314)"/>
<path d="M21.4695 6.81473C22.1899 9.04159 21.3042 11.319 19.4916 11.9014C17.679 12.4838 15.6257 11.1507 14.9054 8.92388C14.1852 6.69702 15.0707 4.41965 16.8834 3.83723C18.6961 3.2548 20.7494 4.58788 21.4695 6.81473Z" fill="#CE2121"/>
<path d="M66.6527 9.11896C68.4655 8.53657 69.3512 6.25917 68.631 4.03223C67.9108 1.80531 65.8574 0.472136 64.0447 1.05452C62.2319 1.6369 61.3462 3.9143 62.0664 6.14124C62.7867 8.36816 64.84 9.70134 66.6527 9.11896Z" fill="#328402"/>
<path d="M7.48299 54.6845H4.29403V66.7472H1.91398V54.6845H0.156174V52.4519H1.91398V51.351C1.91398 50.6275 2.02287 49.9763 2.24066 49.3974C2.46881 48.8082 2.77475 48.3121 3.15845 47.909C3.54217 47.4955 3.98291 47.1751 4.4807 46.9478C4.97849 46.7099 5.50221 46.5912 6.05185 46.5912C6.29037 46.5912 6.49779 46.6066 6.67407 46.6377C6.85038 46.6687 7.00594 46.7049 7.14075 46.7461C7.26521 46.8082 7.37928 46.8598 7.48299 46.9013V48.9633C7.42076 48.9427 7.34817 48.9221 7.26521 48.9013C7.20299 48.8806 7.11483 48.86 7.00075 48.8393C6.89705 48.8187 6.79334 48.8082 6.68964 48.8082C5.9637 48.8082 5.38295 49.0305 4.94738 49.475C4.51181 49.9194 4.29403 50.5448 4.29403 51.351V52.4519H7.48299V54.6845Z" fill="#CE2121"/>
<path d="M11.6364 59.5995C11.6364 60.3645 11.7505 61.0621 11.9786 61.6927C12.2172 62.3128 12.5386 62.8452 12.9431 63.2896C13.3476 63.7341 13.809 64.0804 14.3276 64.3284C14.8565 64.5662 15.3957 64.685 15.9454 64.685C16.495 64.685 17.0291 64.5662 17.5476 64.3284C18.0661 64.0804 18.5225 63.7341 18.9166 63.2896C19.3106 62.8452 19.627 62.3128 19.8655 61.6927C20.1143 61.0621 20.2388 60.3645 20.2388 59.5995C20.2388 58.8346 20.1143 58.142 19.8655 57.5219C19.627 56.9017 19.3106 56.3694 18.9166 55.925C18.5225 55.4804 18.0661 55.1394 17.5476 54.9016C17.0291 54.6536 16.495 54.5296 15.9454 54.5296C15.3957 54.5296 14.8565 54.6536 14.3276 54.9016C13.809 55.1394 13.3476 55.4804 12.9431 55.925C12.5386 56.3694 12.2172 56.9017 11.9786 57.5219C11.7505 58.142 11.6364 58.8346 11.6364 59.5995ZM22.6344 59.5995C22.6344 60.6745 22.4581 61.6616 22.1054 62.561C21.7529 63.4498 21.2758 64.22 20.6743 64.8711C20.0729 65.512 19.3624 66.0132 18.5432 66.3751C17.7239 66.7266 16.858 66.9022 15.9454 66.9022C15.0328 66.9022 14.1668 66.7266 13.3476 66.3751C12.5283 66.0132 11.8127 65.512 11.2008 64.8711C10.5994 64.22 10.1223 63.4498 9.7697 62.561C9.42747 61.6721 9.25636 60.6848 9.25636 59.5995C9.25636 58.5245 9.42747 57.5425 9.7697 56.6536C10.1223 55.7648 10.5994 54.9999 11.2008 54.3589C11.8127 53.7078 12.5283 53.2013 13.3476 52.8395C14.1668 52.4777 15.0328 52.2968 15.9454 52.2968C16.858 52.2968 17.7239 52.4777 18.5432 52.8395C19.3624 53.2013 20.0729 53.7078 20.6743 54.3589C21.2758 54.9999 21.7529 55.7648 22.1054 56.6536C22.4581 57.5425 22.6344 58.5245 22.6344 59.5995Z" fill="#CE2121"/>
<path d="M32.3568 52.2968C33.1243 52.2968 33.8398 52.4519 34.5034 52.762C35.1776 53.0721 35.7687 53.4958 36.2768 54.0334C36.785 54.5709 37.1843 55.2221 37.4747 55.9869C37.7755 56.7415 37.9258 57.5787 37.9258 58.4988V66.7472H35.5457V58.4988C35.5457 57.9096 35.4473 57.372 35.2502 56.8862C35.0635 56.39 34.8094 55.9663 34.488 55.6149C34.1665 55.2634 33.7932 54.9946 33.368 54.8085C32.9531 54.6226 32.5072 54.5296 32.0301 54.5296C30.8998 54.5296 29.9819 54.8913 29.2768 55.6149C28.5716 56.3281 28.2189 57.2893 28.2189 58.4988V66.7472H25.8233V52.4519H27.5811L28.2189 54.0488C28.5196 53.7284 28.8671 53.4442 29.2611 53.1961C29.6242 52.9584 30.0597 52.7517 30.5678 52.5759C31.0761 52.3899 31.6723 52.2968 32.3568 52.2968Z" fill="#CE2121"/>
<path d="M52.2683 59.5995C52.2683 58.8346 52.1439 58.142 51.8949 57.5219C51.6565 56.9017 51.335 56.3694 50.9304 55.925C50.526 55.4804 50.0491 55.1394 49.4994 54.9016C48.9601 54.6536 48.3948 54.5296 47.8038 54.5296C47.2127 54.5296 46.6423 54.6536 46.0926 54.9016C45.5534 55.1394 45.0815 55.4804 44.6771 55.925C44.2727 56.3694 43.946 56.9017 43.697 57.5219C43.4585 58.142 43.3392 58.8346 43.3392 59.5995C43.3392 60.3645 43.4585 61.0621 43.697 61.6927C43.946 62.3128 44.2727 62.8452 44.6771 63.2896C45.0815 63.7341 45.5534 64.0804 46.0926 64.3284C46.6423 64.5662 47.2127 64.685 47.8038 64.685C48.3948 64.685 48.9601 64.5662 49.4994 64.3284C50.0491 64.0804 50.526 63.7341 50.9304 63.2896C51.335 62.8452 51.6565 62.3128 51.8949 61.6927C52.1439 61.0621 52.2683 60.3645 52.2683 59.5995ZM51.9416 65.1657C51.6202 65.5068 51.2624 65.8015 50.8683 66.0494C50.5053 66.2873 50.0542 66.4888 49.515 66.6542C48.986 66.8195 48.3638 66.9022 47.6482 66.9022C46.7356 66.9022 45.8697 66.7266 45.0503 66.3751C44.2311 66.0132 43.5155 65.512 42.9037 64.8711C42.3022 64.22 41.8251 63.4498 41.4725 62.561C41.1303 61.6721 40.9592 60.6848 40.9592 59.5995C40.9592 58.5245 41.1303 57.5425 41.4725 56.6536C41.8251 55.7648 42.3022 54.9998 42.9037 54.3589C43.5155 53.7078 44.2311 53.2013 45.0503 52.8395C45.8697 52.4777 46.7356 52.2968 47.6482 52.2968C48.3741 52.2968 49.0016 52.4002 49.5304 52.6069C50.0594 52.8033 50.5053 53.0203 50.8683 53.2582C51.2727 53.5373 51.6305 53.8524 51.9416 54.2039V46.7461H54.3372V66.7472H52.5794L51.9416 65.1657Z" fill="#CE2121"/>
<path d="M64.9931 59.5995H56.235V57.5374H64.9931V59.5995Z" fill="#328402"/>
<path d="M70.5621 66.7472H68.1665V52.4519H70.5621V66.7472ZM67.8553 48.4207C67.8553 47.9763 67.9953 47.6145 68.2753 47.3353C68.5657 47.0459 68.9235 46.9013 69.3486 46.9013C69.7946 46.9013 70.1577 47.0459 70.4375 47.3353C70.7279 47.6145 70.8732 47.9763 70.8732 48.4207C70.8732 48.8444 70.7279 49.201 70.4375 49.4905C70.1577 49.7799 69.7946 49.9247 69.3486 49.9247C68.9235 49.9247 68.5657 49.7799 68.2753 49.4905C67.9953 49.201 67.8553 48.8444 67.8553 48.4207Z" fill="#328402"/>
<path d="M84.0957 62.6229C84.0957 63.2121 83.9764 63.7651 83.7379 64.2819C83.5096 64.7988 83.1829 65.2535 82.7578 65.6463C82.3326 66.0391 81.8192 66.3492 81.2177 66.5766C80.6163 66.7937 79.9318 66.9022 79.1645 66.9022C77.5674 66.9022 76.3125 66.4784 75.3999 65.6308C74.4873 64.7833 73.9895 63.7289 73.9066 62.468H76.3021C76.3851 63.0984 76.6599 63.6255 77.1266 64.0494C77.5932 64.4732 78.2726 64.685 79.1645 64.685C79.9734 64.685 80.6006 64.4783 81.0467 64.0648C81.4925 63.6514 81.7155 63.1708 81.7155 62.6229C81.7155 62.0958 81.5288 61.6978 81.1556 61.4291C80.7822 61.1604 80.3208 60.9484 79.7711 60.7934C79.2215 60.6383 78.62 60.4937 77.9666 60.3592C77.3237 60.2146 76.7222 60.0079 76.1621 59.7391C75.6124 59.46 75.1509 59.0672 74.7777 58.5607C74.4043 58.0439 74.2177 57.3307 74.2177 56.4211C74.2177 55.8732 74.3317 55.3512 74.5598 54.8551C74.7984 54.3589 75.125 53.9196 75.5399 53.5373C75.9547 53.1548 76.4525 52.8551 77.0333 52.638C77.6244 52.4105 78.2829 52.2968 79.0088 52.2968C80.5333 52.2968 81.7155 52.6949 82.5556 53.4908C83.3956 54.2867 83.8571 55.3202 83.94 56.5917H81.5445C81.4615 55.9612 81.2177 55.4598 80.8133 55.0876C80.4089 54.7155 79.8074 54.5296 79.0088 54.5296C78.2829 54.5296 77.7022 54.726 77.2665 55.1188C76.831 55.5011 76.6132 55.9353 76.6132 56.4211C76.6132 56.9482 76.7999 57.3461 77.1733 57.6149C77.5465 57.8837 78.008 58.1007 78.5577 58.2662C79.1073 58.4211 79.7037 58.5659 80.3466 58.7002C81 58.8346 81.6015 59.0414 82.1512 59.3204C82.7111 59.5892 83.1726 59.9872 83.5356 60.5143C83.909 61.0311 84.0957 61.734 84.0957 62.6229Z" fill="#328402"/>
<path d="M89.6647 66.7472H87.2689V52.4519H89.6647V66.7472ZM86.9578 48.4207C86.9578 47.9763 87.0978 47.6145 87.3779 47.3353C87.6683 47.0459 88.026 46.9013 88.4512 46.9013C88.8972 46.9013 89.2601 47.0459 89.5401 47.3353C89.8305 47.6145 89.9758 47.9763 89.9758 48.4207C89.9758 48.8444 89.8305 49.201 89.5401 49.4905C89.2601 49.7799 88.8972 49.9247 88.4512 49.9247C88.026 49.9247 87.6683 49.7799 87.3779 49.4905C87.0978 49.201 86.9578 48.8444 86.9578 48.4207Z" fill="#328402"/>
<defs>
<linearGradient id="paint0_linear_22:314" x1="45.5344" y1="19.939" x2="78.0939" y2="19.939" gradientUnits="userSpaceOnUse">
<stop stop-color="#67AE3E"/>
<stop offset="1" stop-color="#328402"/>
</linearGradient>
<linearGradient id="paint1_linear_22:314" x1="18.9701" y1="24.9156" x2="46.8175" y2="24.9156" gradientUnits="userSpaceOnUse">
<stop stop-color="#AD3535"/>
<stop offset="1" stop-color="#E70008"/>
</linearGradient>
</defs>
</svg>
