<svg width="36" height="36" viewBox="0 0 36 36" fill="none" xmlns="http://www.w3.org/2000/svg">
<path d="M31.6238 7.56434L31.1453 7.08579L24.8794 0.819931L24.4009 0.341379C24.1842 0.124759 23.8838 0 23.5766 0H5.56294C4.8268 0 4.03418 0.568552 4.03418 1.81614V24.2069V34.4712V34.7586C4.03418 35.2781 4.5568 35.7846 5.17501 35.9441C5.20604 35.9522 5.23583 35.964 5.26811 35.9702C5.36494 35.9894 5.46363 36 5.56294 36H30.4365C30.5358 36 30.6345 35.9894 30.7313 35.9702C30.7636 35.964 30.7934 35.9522 30.8244 35.9441C31.4426 35.7846 31.9652 35.2781 31.9652 34.7586V34.4712V24.2069V8.676C31.9652 8.19993 31.9081 7.84862 31.6238 7.56434ZM29.7525 7.44828H24.5169V2.21276L29.7525 7.44828ZM5.56294 34.7586C5.51887 34.7586 5.47915 34.7425 5.44004 34.7282C5.34321 34.6823 5.27556 34.5854 5.27556 34.4712V25.4483H30.7238V34.4712C30.7238 34.5854 30.6562 34.6817 30.5594 34.7282C30.5202 34.7425 30.4805 34.7586 30.4365 34.7586H5.56294ZM5.27556 24.2069V1.81614C5.27556 1.68145 5.29604 1.24138 5.56294 1.24138H23.3116C23.2911 1.31959 23.2756 1.40028 23.2756 1.48407V8.68966H30.4811C30.5649 8.68966 30.645 8.67414 30.7232 8.65366C30.7232 8.66297 30.7238 8.66669 30.7238 8.676V24.2069H5.27556Z" fill="#F72626"/>
<path d="M13.6809 27.7721C13.4742 27.6026 13.2408 27.4748 12.9807 27.3904C12.7207 27.3053 12.4575 27.2631 12.1918 27.2631H10.3931V33.5172H11.4116V31.2597H12.167C12.4947 31.2597 12.7951 31.212 13.0664 31.1157C13.3376 31.0195 13.5698 30.8836 13.7622 30.7086C13.9546 30.5335 14.1042 30.3169 14.2122 30.0593C14.3195 29.8017 14.3735 29.515 14.3735 29.1978C14.3735 28.898 14.3096 28.628 14.1824 28.3872C14.0551 28.1464 13.8875 27.9422 13.6809 27.7721ZM13.2948 29.8384C13.2321 30.0109 13.1508 30.145 13.049 30.2412C12.9472 30.3374 12.8355 30.4069 12.7138 30.4491C12.5922 30.4913 12.4687 30.5131 12.3445 30.5131H11.411V28.0353H12.1744C12.4345 28.0353 12.6437 28.0762 12.8026 28.1582C12.9609 28.2401 13.0838 28.3419 13.1719 28.4635C13.2594 28.5852 13.3171 28.7124 13.3457 28.8453C13.3736 28.9781 13.3879 29.0954 13.3879 29.1972C13.3879 29.4523 13.3569 29.6658 13.2948 29.8384Z" fill="#F72626"/>
<path d="M19.833 28.1793C19.5698 27.9024 19.239 27.6796 18.8399 27.5133C18.4408 27.3469 17.9784 27.2631 17.4526 27.2631H15.5688V33.5172H17.9362C18.015 33.5172 18.1366 33.5073 18.3011 33.4874C18.465 33.4675 18.6462 33.4228 18.8442 33.3515C19.0422 33.2807 19.2471 33.1746 19.4593 33.0331C19.6716 32.8915 19.8622 32.6979 20.0322 32.4515C20.2023 32.2051 20.3419 31.8997 20.4524 31.5347C20.5629 31.1697 20.6182 30.7297 20.6182 30.2151C20.6182 29.8415 20.553 29.4777 20.4233 29.1246C20.2923 28.772 20.0962 28.4567 19.833 28.1793ZM19.0906 32.1082C18.7853 32.5495 18.2875 32.7699 17.5973 32.7699H16.5874V28.0346H17.1814C17.668 28.0346 18.064 28.0986 18.3694 28.2258C18.6748 28.3531 18.9168 28.52 19.095 28.7267C19.2731 28.9334 19.3929 29.1637 19.4556 29.4182C19.5177 29.6726 19.5487 29.9302 19.5487 30.1903C19.5487 31.0276 19.396 31.6675 19.0906 32.1082Z" fill="#F72626"/>
<path d="M22.0952 33.5172H23.1305V30.6999H25.7443V30.0041H23.1305V28.0353H26.0068V27.2631H22.0952V33.5172Z" fill="#F72626"/>
<path d="M23.8515 14.2516C23.2811 14.2516 22.5809 14.3261 21.7672 14.4739C20.6314 13.2685 19.4458 11.5082 18.6092 9.7802C19.439 6.28634 19.0238 5.79165 18.8407 5.55827C18.6458 5.30999 18.3708 4.90717 18.058 4.90717C17.927 4.90717 17.5695 4.96675 17.4274 5.01392C17.0698 5.1331 16.8774 5.40868 16.7235 5.76806C16.2847 6.79406 16.8867 8.54317 17.5062 9.8913C16.9767 11.9973 16.0885 14.5179 15.155 16.5637C12.8026 17.6412 11.5532 18.6995 11.4402 19.7094C11.3992 20.0768 11.4861 20.6162 12.1323 21.101C12.3092 21.2332 12.5165 21.3033 12.7325 21.3033C13.2756 21.3033 13.8243 20.8874 14.4592 19.9955C14.9223 19.345 15.4194 18.4581 15.9383 17.357C17.6005 16.6301 19.6569 15.9734 21.4178 15.6054C22.3985 16.547 23.2767 17.0237 24.0315 17.0237C24.5876 17.0237 25.0643 16.7679 25.4094 16.2844C25.7688 15.781 25.8507 15.3304 25.6515 14.9437C25.4125 14.4788 24.8235 14.2516 23.8515 14.2516ZM12.7461 20.2556C12.4556 20.0328 12.4724 19.8825 12.4786 19.8261C12.5171 19.481 13.0577 18.8683 14.3841 18.1229C13.3786 19.98 12.8386 20.2264 12.7461 20.2556ZM17.8358 6.02813C17.8625 6.01944 18.4844 6.71151 17.8954 8.02427C17.0103 7.11868 17.7749 6.04861 17.8358 6.02813ZM16.5528 15.9753C17.1828 14.4739 17.7687 12.816 18.2125 11.2804C18.9096 12.533 19.7469 13.7483 20.5848 14.7215C19.2603 15.0325 17.85 15.4713 16.5528 15.9753ZM24.5603 15.678C24.3692 15.9455 23.9545 15.9517 23.8093 15.9517C23.4785 15.9517 23.3549 15.755 22.8491 15.3658C23.2662 15.3124 23.6597 15.2988 23.9732 15.2988C24.5249 15.2988 24.6261 15.3801 24.7025 15.421C24.6888 15.4651 24.6528 15.5483 24.5603 15.678Z" fill="#F72626"/>
</svg>
