<svg width="36" height="36" viewBox="0 0 36 36" fill="none" xmlns="http://www.w3.org/2000/svg">
<path d="M9.59094 18.0854C9.59094 17.1705 8.95624 16.6245 7.83363 16.6245C7.37677 16.6245 7.06723 16.6686 6.90527 16.7131V19.6494C7.09691 19.6936 7.33266 19.708 7.65821 19.708C8.85252 19.7088 9.59094 19.1032 9.59094 18.0854Z" fill="black"/>
<path d="M31.9237 12.877H31.0592V8.70606C31.0592 8.68005 31.0551 8.65384 31.0516 8.6275C31.0503 8.46188 30.9976 8.2992 30.8842 8.17031L23.9432 0.241437C23.9411 0.239411 23.9391 0.238692 23.9377 0.23647C23.8963 0.190261 23.8481 0.15183 23.7971 0.118562C23.782 0.108431 23.7668 0.0999345 23.7509 0.0911763C23.7068 0.0670587 23.6599 0.0470587 23.6117 0.0326143C23.5986 0.0289542 23.5868 0.0235947 23.5737 0.020196C23.5213 0.00777776 23.4669 0 23.4117 0H6.35341C5.57446 0 4.94165 0.633528 4.94165 1.41183V12.8767H4.07741C2.9631 12.8767 2.05957 13.7798 2.05957 14.8945V25.3877C2.05957 26.5016 2.9631 27.4053 4.07741 27.4053H4.94172V34.5882C4.94172 35.3664 5.57453 36 6.35348 36H29.6475C30.4258 36 31.0593 35.3665 31.0593 34.5882V27.4053H31.9237C33.0377 27.4053 33.9414 26.5016 33.9414 25.3877V14.8949C33.9414 13.7802 33.0376 12.877 31.9237 12.877ZM6.35341 1.41209H22.7058V8.63515C22.7058 9.02515 23.0222 9.34103 23.4117 9.34103H29.6475V12.8775H6.35341V1.41209ZM15.317 21.9516V24.9471H13.2516V15.0015H15.878L17.9441 18.6459C18.534 19.6937 19.1247 20.9324 19.5666 22.0547H19.6108C19.4632 20.7407 19.4191 19.3983 19.4191 17.9083V15.0015H21.4853V24.9471H19.1247L16.9995 21.1103C16.4081 20.048 15.7596 18.7644 15.2716 17.5987L15.2281 17.6132C15.2884 18.9268 15.317 20.3285 15.317 21.9516ZM4.67734 24.9471V15.1346C5.371 15.0167 6.34505 14.9281 7.71694 14.9281C9.10353 14.9281 10.0929 15.1936 10.7567 15.725C11.3906 16.2265 11.8191 17.0526 11.8191 18.0269C11.8191 19.0006 11.495 19.8275 10.9042 20.3879C10.137 21.1109 9.00072 21.4356 7.67275 21.4356C7.3772 21.4356 7.11112 21.4205 6.9057 21.3915V24.9478H4.67734V24.9471ZM29.6475 34.206H6.35341V27.4053H29.6475V34.206H29.6475ZM31.7423 24.4894C31.0489 24.7251 29.735 25.0505 28.4218 25.0505C26.6075 25.0505 25.2929 24.5928 24.3788 23.7077C23.4641 22.8515 22.9616 21.5528 22.9768 20.0921C22.9913 16.787 25.397 14.8985 28.6576 14.8985C29.9415 14.8985 30.931 15.1487 31.417 15.3851L30.9455 17.1853C30.3985 16.9489 29.7199 16.7572 28.628 16.7572C26.755 16.7572 25.3377 17.8197 25.3377 19.9742C25.3377 22.0253 26.622 23.2351 28.4666 23.2351C28.9826 23.2351 29.3959 23.1762 29.5734 23.0876V21.0069H28.0379V19.2507H31.7424V24.4894H31.7423Z" fill="black"/>
</svg>
