<svg width="34" height="34" viewBox="0 0 34 34" fill="none" xmlns="http://www.w3.org/2000/svg">
<path d="M15.3794 18.6208C13.7219 16.9633 12.4724 15.1075 11.6422 13.2247C11.4665 12.8267 11.57 12.3606 11.8774 12.0532L13.0376 10.8943C13.9882 9.94375 13.9882 8.59933 13.158 7.76916L11.4949 6.106C10.3885 4.99958 8.59496 4.99958 7.48854 6.106L6.56488 7.02966C5.51513 8.07941 5.07738 9.59383 5.36071 11.0955C6.06054 14.7972 8.21104 18.8503 11.6805 22.3197C15.1499 25.7892 19.203 27.9397 22.9047 28.6395C24.4064 28.9228 25.9208 28.4851 26.9705 27.4353L27.8928 26.5131C28.9992 25.4067 28.9992 23.6132 27.8928 22.5067L26.231 20.845C25.4009 20.0148 24.055 20.0148 23.2263 20.845L21.947 22.1257C21.6396 22.4331 21.1735 22.5365 20.7755 22.3608C18.8927 21.5292 17.0369 20.2783 15.3794 18.6208V18.6208Z" stroke="#328402" stroke-width="1.5" stroke-linecap="round" stroke-linejoin="round"/>
</svg>
