<svg width="40" height="40" viewBox="0 0 40 40" fill="none" xmlns="http://www.w3.org/2000/svg">
<path d="M12.5 5H27.5067C31.645 5 35 8.355 35 12.4933V27.5083C35 31.645 31.645 35 27.5067 35H12.4933C8.355 35 5 31.645 5 27.5067V12.5C5 8.35833 8.35833 5 12.5 5V5Z" stroke="#9C9C9C" stroke-width="1.5" stroke-linecap="round" stroke-linejoin="round"/>
<path d="M16.8237 25.8184L15.4703 21.3617C15.4687 21.36 11.5937 20.1517 11.5937 20.1517C11.1503 20.0134 11.1287 19.3917 11.5637 19.225L26.3154 13.535C26.8604 13.325 27.422 13.8034 27.302 14.375L24.8237 26.055C24.6787 26.74 23.8737 27.045 23.312 26.6284L19.792 24.0284L17.717 26.0484C17.4254 26.3284 16.942 26.2034 16.8237 25.8184V25.8184Z" stroke="#9C9C9C" stroke-width="1.5" stroke-linecap="round" stroke-linejoin="round"/>
</svg>
