<svg width="24" height="24" viewBox="0 0 24 24" fill="none" xmlns="http://www.w3.org/2000/svg">
<path d="M7.5 3H16.504C18.987 3 21 5.013 21 7.496V16.505C21 18.987 18.987 21 16.504 21H7.496C5.013 21 3 18.987 3 16.504V7.5C3 5.015 5.015 3 7.5 3V3Z" stroke="white" stroke-width="1.5" stroke-linecap="round" stroke-linejoin="round"/>
<path d="M10.094 15.4911L9.282 12.8171C9.281 12.8161 6.956 12.0911 6.956 12.0911C6.69 12.0081 6.677 11.6351 6.938 11.5351L15.789 8.12106C16.116 7.99506 16.453 8.28206 16.381 8.62506L14.894 15.6331C14.807 16.0441 14.324 16.2271 13.987 15.9771L11.875 14.4171L10.63 15.6291C10.455 15.7971 10.165 15.7221 10.094 15.4911V15.4911Z" stroke="white" stroke-width="1.5" stroke-linecap="round" stroke-linejoin="round"/>
</svg>
