<svg width="40" height="40" viewBox="0 0 40 40" fill="none" xmlns="http://www.w3.org/2000/svg">
<path d="M12.5 5H27.5067C31.645 5 35 8.355 35 12.4933V27.5083C35 31.645 31.645 35 27.5067 35H12.4933C8.355 35 5 31.645 5 27.5067V12.5C5 8.35833 8.35833 5 12.5 5V5Z" stroke="#9F9F9F" stroke-width="1.5" stroke-linecap="round" stroke-linejoin="round"/>
<path d="M10.417 25.5834C10.4487 25.5784 13.417 24.5834 13.417 24.5834C10.077 21.2067 9.82366 16.205 12.417 12.5834C13.647 14.8717 15.9437 16.9817 18.417 17.5834C18.512 14.695 20.472 12.5834 23.417 12.5834C25.422 12.5834 26.602 13.3484 27.417 14.5834H30.417L28.417 17.5834" stroke="#9F9F9F" stroke-width="1.5" stroke-linecap="round" stroke-linejoin="round"/>
</svg>
