<svg width="40" height="40" viewBox="0 0 40 40" fill="none" xmlns="http://www.w3.org/2000/svg">
<path d="M12.5 5H27.5067C31.645 5 35 8.355 35 12.4933V27.5083C35 31.645 31.645 35 27.5067 35H12.4933C8.355 35 5 31.645 5 27.5067V12.5C5 8.35833 8.35833 5 12.5 5V5Z" stroke="#9C9C9C" stroke-width="1.5" stroke-linecap="round" stroke-linejoin="round"/>
<path d="M17.8064 16.0734H19.8314V26.2H19.8281C17.7431 26.2 15.4514 24.9334 13.8264 22.6C11.3864 19.18 10.7197 16.595 10.7197 16.075" stroke="#9C9C9C" stroke-width="1.5" stroke-linecap="round" stroke-linejoin="round"/>
<path d="M27.7628 26.2C27.7628 26.2 27.0262 24.6466 25.5312 22.9383C24.5345 21.7699 23.1312 21.1383 21.8545 21.1383C23.1312 21.1383 24.5345 20.505 25.5312 19.3383C27.0262 17.6283 27.7628 16.075 27.7628 16.075" stroke="#9C9C9C" stroke-width="1.5" stroke-linecap="round" stroke-linejoin="round"/>
<path d="M21.8548 21.14H19.8281" stroke="#9C9C9C" stroke-width="1.5" stroke-linecap="round" stroke-linejoin="round"/>
</svg>
