<svg width="40" height="40" viewBox="0 0 40 40" fill="none" xmlns="http://www.w3.org/2000/svg">
<path d="M30.3396 9.60338C27.5963 6.85838 23.9479 5.34505 20.0612 5.34338C12.0496 5.34338 5.53125 11.8584 5.52958 19.8667C5.52625 22.4151 6.19458 24.9201 7.46792 27.1284L5.40625 34.6551L13.1096 32.6351C15.2413 33.7951 17.6279 34.4034 20.0546 34.4034H20.0612C28.0696 34.4034 34.5879 27.8867 34.5912 19.8784C34.5929 15.9984 33.0829 12.3501 30.3396 9.60338Z" stroke="#9C9C9C" stroke-width="1.5" stroke-linecap="round" stroke-linejoin="round"/>
<path d="M21.8252 22.6L22.5019 21.9283C23.1235 21.3116 24.1069 21.2333 24.8235 21.7366C25.5169 22.2233 26.1435 22.66 26.7269 23.0666C27.6535 23.71 27.7652 25.03 26.9669 25.8266L26.3685 26.425" stroke="#9C9C9C" stroke-width="1.5" stroke-linecap="round" stroke-linejoin="round"/>
<path d="M13.5752 13.6317L14.1735 13.0333C14.9702 12.2367 16.2902 12.3483 16.9335 13.2733C17.3385 13.8567 17.7752 14.4833 18.2635 15.1767C18.7669 15.8933 18.6902 16.8767 18.0719 17.4983L17.4002 18.175" stroke="#9C9C9C" stroke-width="1.5" stroke-linecap="round" stroke-linejoin="round"/>
<path d="M26.3682 26.425C23.8999 28.8816 19.7516 26.795 16.4766 23.5183" stroke="#9C9C9C" stroke-width="1.5" stroke-linecap="round" stroke-linejoin="round"/>
<path d="M16.4801 23.5234C13.2051 20.2467 11.1184 16.1 13.5751 13.6317" stroke="#9C9C9C" stroke-width="1.5" stroke-linecap="round" stroke-linejoin="round"/>
<path d="M17.4004 18.175C17.9321 19.0134 18.6137 19.8434 19.3837 20.6134L19.3871 20.6167C20.1571 21.3867 20.9871 22.0684 21.8254 22.6001" stroke="#9C9C9C" stroke-width="1.5" stroke-linecap="round" stroke-linejoin="round"/>
</svg>
