<svg width="24" height="24" viewBox="0 0 24 24" fill="none" xmlns="http://www.w3.org/2000/svg">
<path d="M18.204 5.76205C16.558 4.11505 14.369 3.20705 12.037 3.20605C7.23002 3.20605 3.31902 7.11505 3.31802 11.9201C3.31602 13.4491 3.71702 14.9521 4.48102 16.2771L3.24402 20.7931L7.86602 19.5811C9.14502 20.2771 10.577 20.6421 12.033 20.6421H12.037C16.842 20.6421 20.753 16.7321 20.755 11.9271C20.756 9.59905 19.85 7.41005 18.204 5.76205Z" stroke="white" stroke-width="1.5" stroke-linecap="round" stroke-linejoin="round"/>
<path d="M13.095 13.5599L13.501 13.1569C13.874 12.7869 14.464 12.7399 14.894 13.0419C15.31 13.3339 15.686 13.5959 16.036 13.8399C16.592 14.2259 16.659 15.0179 16.18 15.4959L15.821 15.8549" stroke="white" stroke-width="1.5" stroke-linecap="round" stroke-linejoin="round"/>
<path d="M8.14502 8.1789L8.50402 7.8199C8.98202 7.3419 9.77402 7.4089 10.16 7.9639C10.403 8.3139 10.665 8.6899 10.958 9.1059C11.26 9.5359 11.214 10.1259 10.843 10.4989L10.44 10.9049" stroke="white" stroke-width="1.5" stroke-linecap="round" stroke-linejoin="round"/>
<path d="M15.821 15.8548C14.34 17.3288 11.851 16.0768 9.88599 14.1108" stroke="white" stroke-width="1.5" stroke-linecap="round" stroke-linejoin="round"/>
<path d="M9.888 14.1137C7.923 12.1477 6.67101 9.65971 8.14501 8.17871" stroke="white" stroke-width="1.5" stroke-linecap="round" stroke-linejoin="round"/>
<path d="M10.44 10.9048C10.759 11.4078 11.168 11.9058 11.63 12.3678L11.632 12.3698C12.094 12.8318 12.592 13.2408 13.095 13.5598" stroke="white" stroke-width="1.5" stroke-linecap="round" stroke-linejoin="round"/>
</svg>
